<?xml version="1.0" encoding="utf-8"?>
<!-- Generator: Adobe Illustrator 24.3.0, SVG Export Plug-In . SVG Version: 6.00 Build 0)  -->
<svg version="1.1" id="Layer_1" xmlns="http://www.w3.org/2000/svg" xmlns:xlink="http://www.w3.org/1999/xlink" x="0px" y="0px"
	 viewBox="90 90 330 330" style="enable-background:new 0 0 512 512;" xml:space="preserve">
<style type="text/css">
	.st0{fill:#0F1841;}
	.st1{fill:#FFFFFF;}
	.st2{fill:#F19A1F;}
</style>
<rect class="st0" x="90" y="90" width="330" height="330"/>
<g>
	<g>
		<path class="st1" d="M290.01,184.76c-19.61-19.61-43.28-29.42-71.01-29.42c-27.89,0-51.64,9.81-71.25,29.42
			c-19.61,19.61-29.42,43.28-29.42,71.01c0,27.89,9.81,51.64,29.42,71.24c19.6,19.61,43.35,29.42,71.25,29.42
			c18.03,0,34.33-4.14,48.92-12.43l-21.52-21.52c-8.42,3.49-17.56,5.22-27.4,5.22c-19.92,0-36.89-7.01-50.91-21.02
			c-14.01-14.02-21.02-30.99-21.02-50.91c0-19.76,7.01-36.65,21.02-50.67c14.02-14.02,30.99-21.02,50.91-21.02
			c19.76,0,36.65,7,50.67,21.02c14.02,14.02,21.02,30.91,21.02,50.67c0,15.07-4,28.44-12.03,40.14l20.6,20.6
			c13.44-17.41,20.16-37.65,20.16-60.74C319.43,228.04,309.62,204.37,290.01,184.76z"/>
		<polygon class="st2" points="319.2,336.44 298.74,356.66 275.4,333.32 204.75,262.67 224.97,242.21 275.22,292.46 295.82,313.06 
					"/>
		<rect x="349.3" y="228.34" class="st1" width="28.73" height="128.32"/>
	</g>
	<g>
		<g>
			<path class="st2" d="M349.3,207.93V217h28.73v-9.08c10.83-3.83,15.64-13.1,15.64-25.24c0-12.14-9.88-23.53-20.71-27.35v22.12
				l-9.29,7.36l-9.29-7.36v-22.12c-10.83,3.82-20.71,15.21-20.71,27.35C333.66,194.83,338.47,204.1,349.3,207.93z"/>
		</g>
	</g>
</g>
</svg>
