<?xml version="1.0" encoding="utf-8"?>
<!-- Generator: Adobe Illustrator 24.3.0, SVG Export Plug-In . SVG Version: 6.00 Build 0)  -->
<svg version="1.1" id="Layer_1" xmlns="http://www.w3.org/2000/svg" xmlns:xlink="http://www.w3.org/1999/xlink" x="0px" y="0px"
	 viewBox="572 850 870 300" style="enable-background:new 0 0 2000 2000;" xml:space="preserve">
<style type="text/css">
	.st0{fill:#0F1841;}
	.st1{fill:#F29B20;}
	.st2{fill:#FFFFFF;}
</style>
<rect class="st0" x="572" y="850" width="870" height="300"/>
<g>
	<g>
		<path class="st1" d="M691.23,904.41h-62.67v-19.75h144.83v19.75h-62.41v210.92h-19.75V904.41z"/>
		<path class="st1" d="M932.76,1022.91c0,25.46-9,47.18-26.99,65.17c-18,18-39.72,26.99-65.17,26.99
			c-25.46,0-47.18-8.99-65.17-26.99c-18-17.99-26.99-39.72-26.99-65.17c0-25.45,8.99-47.18,26.99-65.17
			c17.99-17.99,39.72-26.99,65.17-26.99c25.45,0,47.18,9,65.17,26.99C923.76,975.73,932.76,997.46,932.76,1022.91z M840.6,950.49
			c-20.01,0-37.09,7.07-51.22,21.2c-14.13,14.13-21.2,31.2-21.2,51.22c0,20.01,7.06,37.09,21.2,51.22
			c14.13,14.13,31.2,21.2,51.22,21.2c20.01,0,37.08-7.06,51.22-21.2c14.13-14.13,21.2-31.2,21.2-51.22
			c0-20.01-7.07-37.08-21.2-51.22C877.68,957.56,860.61,950.49,840.6,950.49z"/>
		<path class="st1" d="M982.24,1000.67v114.4h-19.75V937.33h19.75v17.12c16.5-15.8,36.25-23.7,59.25-23.7v19.75
			c-18.26,0-33.8,6.41-46.61,19.22c-0.05,0.05-0.11,0.11-0.16,0.16C986.62,978.03,982.24,989.17,982.24,1000.67z"/>
		<path class="st2" d="M1252.66,918.37c-22.47-22.47-49.59-33.71-81.36-33.71c-31.96,0-59.17,11.24-81.63,33.71
			c-22.47,22.47-33.71,49.59-33.71,81.36c0,31.96,11.24,59.17,33.71,81.63c22.46,22.47,49.67,33.71,81.63,33.71
			c20.65,0,39.34-4.75,56.06-14.25l-24.66-24.66c-9.65,3.99-20.12,5.98-31.4,5.98c-22.83,0-42.27-8.03-58.33-24.09
			c-16.05-16.07-24.09-35.51-24.09-58.33c0-22.64,8.03-41.99,24.09-58.06c16.07-16.07,35.51-24.09,58.33-24.09
			c22.64,0,41.99,8.02,58.06,24.09c16.07,16.07,24.09,35.41,24.09,58.06c0,17.27-4.59,32.59-13.79,45.99l23.61,23.61
			c15.4-19.94,23.1-43.14,23.1-69.59C1286.37,967.97,1275.14,940.85,1252.66,918.37z"/>
		<polygon class="st1" points="1286.11,1092.16 1262.68,1115.34 1235.93,1088.59 1154.98,1007.64 1178.15,984.2 1235.72,1041.77 
			1259.32,1065.38 		"/>
		<rect x="1320.6" y="968.31" class="st2" width="32.91" height="147.03"/>
	</g>
	<g>
		<g>
			<path class="st1" d="M1320.6,944.92v10.4h32.91v-10.4c12.41-4.39,17.92-15.01,17.92-28.91c0-13.91-11.31-26.96-23.72-31.34v25.35
				l-10.65,8.44l-10.65-8.44v-25.35c-12.41,4.38-23.72,17.43-23.72,31.34C1302.69,929.91,1308.19,940.53,1320.6,944.92z"/>
		</g>
	</g>
</g>
</svg>
